<svg width="97" height="24" viewBox="0 0 97 24" fill="none" xmlns="http://www.w3.org/2000/svg">
<path d="M-0.000158549 8.123C5.57689 16.1055 29.8413 24.0512 46.1619 23.5525C63.8029 23.0535 73.4634 19.5629 92.271 6.72747C92.2164 8.13281 92.0507 9.27648 92.0775 10.3197C92.0581 11.5099 92.0496 12.7683 92.3014 13.9154C92.3556 14.256 93.063 14.7721 93.4805 14.7756C93.898 14.779 94.5 14.1945 94.5815 13.8324C95.2819 10.3691 95.8468 6.92736 96.4686 3.40671C96.6344 2.26304 96.0978 1.51032 94.8914 1.35287C90.3125 0.963219 85.7229 0.505452 81.0871 0.194683C80.0379 0.151918 78.8612 0.618258 77.5056 0.83369C79.0555 3.5902 81.4414 2.86186 83.3228 3.33104C85.2827 3.85756 87.3241 4.02198 89.8263 4.46233C84.8067 9.17069 79.4921 12.4595 73.6979 14.9166C52.4894 24.0134 31.4195 22.6132 10.6745 13.2004C7.97467 11.9535 5.43486 10.4018 2.79196 9.07594C1.99227 8.85386 1.26034 8.62101 -0.000158549 8.123Z" fill="#DF6951"/>
</svg>
