<svg width="135" height="87" viewBox="0 0 135 87" fill="none" xmlns="http://www.w3.org/2000/svg">
<g filter="url(#filter0_d_117_5)">
<path d="M7.40965 33.9832L7.40965 27.2794L26.8572 27.2794L26.8572 33.9832L24.9282 33.9832L23.6317 29.7143L19.7106 29.7143L19.7106 46.9483L22.6198 47.644L22.6198 49.4148L11.647 49.4148L11.647 47.644L14.5562 46.9483L14.5562 29.7143L10.6035 29.7143L9.30697 33.9832L7.40965 33.9832ZM28.2911 49.4148L28.2911 47.7388L30.9789 47.1064L30.9789 36.4814L28.2911 36.4814L28.2911 34.8054L33.3506 33.6038L35.8487 33.6038L35.8487 35.5011C37.4298 33.92 39.3061 33.1295 41.4774 33.1295C41.6039 33.53 41.6672 33.9727 41.6672 34.4576C41.6672 35.4273 41.5618 36.3338 41.3509 37.1771L37.3666 36.513C36.8606 36.7449 36.3547 37.0822 35.8487 37.5249L35.8487 47.1064L39.169 47.7388L39.169 49.4148L28.2911 49.4148ZM43.0521 45.4937C43.0521 43.6596 43.8005 42.2682 45.2973 41.3196C46.8151 40.3498 49.2606 39.8649 52.6336 39.8649L52.6336 38.9163C52.6336 38.2838 52.623 37.8306 52.602 37.5565C52.602 37.2614 52.5598 36.9136 52.4755 36.513C52.3912 36.1125 52.2647 35.8279 52.096 35.6592C51.9484 35.4906 51.7166 35.343 51.4003 35.2165C51.0841 35.0689 50.6941 34.9952 50.2303 34.9952L46.2143 38.4736C44.7808 37.6514 44.064 36.376 44.064 34.6473L45.0127 34.2362C45.4132 34.0676 46.1932 33.8462 47.3527 33.5722C48.5122 33.277 49.64 33.1295 50.7363 33.1295C55.2688 33.1295 57.535 34.9424 57.535 38.5684L57.535 47.0431L60.0015 47.0431L60.0015 48.4029C59.8961 48.5083 59.7485 48.6453 59.5588 48.814C59.3691 48.9826 58.958 49.204 58.3256 49.478C57.6931 49.7521 57.0396 49.8891 56.365 49.8891C54.7628 49.8891 53.5717 49.3516 52.7917 48.2764C51.3792 49.3516 49.8403 49.8891 48.1749 49.8891C46.7203 49.8891 45.4976 49.5202 44.5067 48.7824C43.537 48.0445 43.0521 46.9483 43.0521 45.4937ZM48.1433 45.2091C48.1433 45.8204 48.3435 46.3053 48.7441 46.6637C49.1657 47.0221 49.6717 47.2013 50.2619 47.2013C51.2106 47.2013 52.0011 46.8534 52.6336 46.1577L52.6336 41.8255C51.453 41.8255 50.4095 42.1417 49.503 42.7742C48.5965 43.3855 48.1433 44.1972 48.1433 45.2091ZM59.5482 35.2797L59.5482 33.6038L69.2245 33.6038L69.2245 35.2797L67.0742 35.7857L70.2681 43.3434L73.3986 35.8173L71.3116 35.2797L71.3116 33.6038L78.1736 33.6038L78.1736 35.2797L75.5173 35.9754L69.8886 49.6361L67.6751 49.6361L61.825 35.9438L59.5482 35.2797ZM78.6924 41.3196C78.6924 38.832 79.388 36.8503 80.7794 35.3746C82.1919 33.8778 84.0997 33.1295 86.503 33.1295C88.9484 33.1295 90.7931 33.9622 92.0369 35.6276C93.3017 37.293 93.9342 39.3485 93.9342 41.7939L83.5621 41.7939C83.7097 43.3539 84.2684 44.7031 85.2381 45.8415C86.2079 46.9588 87.4517 47.5175 88.9695 47.5175C90.1079 47.5175 91.3306 47.275 92.6377 46.7902L93.3017 48.5926C91.3412 49.457 89.4228 49.8891 87.5465 49.8891C84.827 49.8891 82.6662 49.0986 81.064 47.5175C79.4829 45.9153 78.6924 43.8493 78.6924 41.3196ZM83.5621 39.8333L88.9063 39.4855C88.9063 38.9795 88.8746 38.5157 88.8114 38.0941C88.7482 37.6514 88.569 37.1244 88.2738 36.513C87.7468 35.6276 87.1249 35.1849 86.4081 35.1849C85.5649 35.1849 84.8692 35.6171 84.3211 36.4814C84.0049 37.0084 83.794 37.5882 83.6886 38.2206C83.5832 38.853 83.5411 39.3906 83.5621 39.8333ZM95.2915 49.4148L95.2915 47.7388L97.9793 47.1064L97.9793 26.9948L95.2915 26.9948L95.2915 25.3188L100.351 24.1172L102.849 24.1172L102.849 47.1064L105.537 47.7388L105.537 49.4148L95.2915 49.4148Z" fill="white"/>
</g>
<g filter="url(#filter1_d_117_5)">
<path d="M34.3548 59.5378C39.9319 67.5203 64.1962 75.466 80.5169 74.9673C98.1579 74.4682 107.818 70.9777 126.626 58.1423C126.571 59.5476 126.406 60.6913 126.432 61.7345C126.413 62.9247 126.405 64.1831 126.656 65.3302C126.711 65.6708 127.418 66.1869 127.835 66.1904C128.253 66.1938 128.855 65.6093 128.936 65.2472C129.637 61.7839 130.202 58.3422 130.824 54.8215C130.989 53.6778 130.453 52.9251 129.246 52.7677C124.668 52.378 120.078 51.9202 115.442 51.6095C114.393 51.5667 113.216 52.0331 111.861 52.2485C113.41 55.005 115.796 54.2767 117.678 54.7458C119.638 55.2724 121.679 55.4368 124.181 55.8771C119.162 60.5855 113.847 63.8743 108.053 66.3314C86.8444 75.4282 65.7745 74.028 45.0295 64.6152C42.3296 63.3682 39.7898 61.8165 37.1469 60.4907C36.3472 60.2687 35.6153 60.0358 34.3548 59.5378Z" fill="#DF6951"/>
</g>
<defs>
<filter id="filter0_d_117_5" x="3.40967" y="24.1172" width="106.127" height="33.772" filterUnits="userSpaceOnUse" color-interpolation-filters="sRGB">
<feFlood flood-opacity="0" result="BackgroundImageFix"/>
<feColorMatrix in="SourceAlpha" type="matrix" values="0 0 0 0 0 0 0 0 0 0 0 0 0 0 0 0 0 0 127 0" result="hardAlpha"/>
<feOffset dy="4"/>
<feGaussianBlur stdDeviation="2"/>
<feComposite in2="hardAlpha" operator="out"/>
<feColorMatrix type="matrix" values="0 0 0 0 0 0 0 0 0 0 0 0 0 0 0 0 0 0 0.25 0"/>
<feBlend mode="normal" in2="BackgroundImageFix" result="effect1_dropShadow_117_5"/>
<feBlend mode="normal" in="SourceGraphic" in2="effect1_dropShadow_117_5" result="shape"/>
</filter>
<filter id="filter1_d_117_5" x="30.355" y="51.6067" width="104.498" height="31.3828" filterUnits="userSpaceOnUse" color-interpolation-filters="sRGB">
<feFlood flood-opacity="0" result="BackgroundImageFix"/>
<feColorMatrix in="SourceAlpha" type="matrix" values="0 0 0 0 0 0 0 0 0 0 0 0 0 0 0 0 0 0 127 0" result="hardAlpha"/>
<feOffset dy="4"/>
<feGaussianBlur stdDeviation="2"/>
<feComposite in2="hardAlpha" operator="out"/>
<feColorMatrix type="matrix" values="0 0 0 0 0 0 0 0 0 0 0 0 0 0 0 0 0 0 0.25 0"/>
<feBlend mode="normal" in2="BackgroundImageFix" result="effect1_dropShadow_117_5"/>
<feBlend mode="normal" in="SourceGraphic" in2="effect1_dropShadow_117_5" result="shape"/>
</filter>
</defs>
</svg>
