<svg width="99" height="27" viewBox="0 0 99 27" fill="none" xmlns="http://www.w3.org/2000/svg">
<path d="M0.0546667 10.5685V3.86458H19.5022V10.5685H17.5733L16.2768 6.29948H12.3556V23.5335L15.2649 24.2292V26H4.29202V24.2292L7.20124 23.5335V6.29948H3.24849L1.95199 10.5685H0.0546667ZM20.9361 26V24.324L23.6239 23.6916V13.0666H20.9361V11.3906L25.9956 10.189H28.4937V12.0863C30.0748 10.5052 31.9511 9.71466 34.1225 9.71466C34.2489 10.1152 34.3122 10.5579 34.3122 11.0428C34.3122 12.0125 34.2068 12.919 33.996 13.7623L30.0116 13.0982C29.5056 13.3301 28.9997 13.6674 28.4937 14.1101V23.6916L31.814 24.324V26H20.9361ZM35.6971 22.0789C35.6971 20.2448 36.4455 18.8534 37.9423 17.9048C39.4602 16.935 41.9056 16.4501 45.2786 16.4501V15.5015C45.2786 14.869 45.2681 14.4158 45.247 14.1417C45.247 13.8466 45.2048 13.4988 45.1205 13.0982C45.0362 12.6977 44.9097 12.4131 44.741 12.2444C44.5935 12.0758 44.3616 11.9282 44.0453 11.8017C43.7291 11.6541 43.3391 11.5804 42.8753 11.5804L38.8593 15.0588C37.4258 14.2366 36.709 12.9612 36.709 11.2325L37.6577 10.8214C38.0582 10.6528 38.8383 10.4314 39.9977 10.1574C41.1572 9.86223 42.2851 9.71466 43.3813 9.71466C47.9138 9.71466 50.18 11.5277 50.18 15.1536V23.6283H52.6465V24.9881C52.5411 25.0935 52.3936 25.2305 52.2038 25.3992C52.0141 25.5678 51.603 25.7892 50.9706 26.0632C50.3381 26.3373 49.6846 26.4743 49.01 26.4743C47.4078 26.4743 46.2167 25.9368 45.4367 24.8616C44.0243 25.9368 42.4853 26.4743 40.8199 26.4743C39.3653 26.4743 38.1426 26.1054 37.1517 25.3676C36.182 24.6297 35.6971 23.5335 35.6971 22.0789ZM40.7883 21.7943C40.7883 22.4056 40.9886 22.8905 41.3891 23.2489C41.8107 23.6073 42.3167 23.7865 42.907 23.7865C43.8556 23.7865 44.6462 23.4386 45.2786 22.7429V18.4107C44.0981 18.4107 43.0545 18.7269 42.148 19.3594C41.2415 19.9707 40.7883 20.7824 40.7883 21.7943ZM52.1932 11.865V10.189H61.8696V11.865L59.7193 12.3709L62.9131 19.9286L66.0437 12.4025L63.9566 11.865V10.189H70.8186V11.865L68.1623 12.5606L62.5336 26.2214H60.3201L54.47 12.529L52.1932 11.865ZM71.3374 17.9048C71.3374 15.4172 72.0331 13.4355 73.4244 11.9598C74.8369 10.463 76.7447 9.71466 79.148 9.71466C81.5935 9.71466 83.4381 10.5474 84.6819 12.2128C85.9468 13.8782 86.5792 15.9337 86.5792 18.3791H76.2072C76.3547 19.9391 76.9134 21.2883 77.8831 22.4267C78.8529 23.544 80.0967 24.1027 81.6145 24.1027C82.7529 24.1027 83.9756 23.8602 85.2827 23.3754L85.9468 25.1778C83.9862 26.0422 82.0678 26.4743 80.1915 26.4743C77.4721 26.4743 75.3112 25.6838 73.709 24.1027C72.1279 22.5005 71.3374 20.4345 71.3374 17.9048ZM76.2072 16.4185L81.5513 16.0707C81.5513 15.5647 81.5197 15.1009 81.4564 14.6793C81.3932 14.2366 81.214 13.7096 80.9189 13.0982C80.3918 12.2128 79.7699 11.7701 79.0532 11.7701C78.2099 11.7701 77.5142 12.2023 76.9661 13.0666C76.6499 13.5936 76.4391 14.1734 76.3337 14.8058C76.2283 15.4382 76.1861 15.9758 76.2072 16.4185ZM87.9365 26V24.324L90.6243 23.6916V3.57998H87.9365V1.90402L92.996 0.70238H95.4941V23.6916L98.182 24.324V26H87.9365Z" fill="white"/>
</svg>
